<svg width="156" height="53" viewBox="0 0 156 53" fill="none" xmlns="http://www.w3.org/2000/svg">
<path d="M149.412 52.9968C149.194 52.9977 148.982 52.9274 148.805 52.7959L140.498 46.553L132.192 52.7959C132.014 52.9293 131.8 53.0008 131.581 53C131.362 52.9992 131.149 52.9261 130.972 52.7913C130.796 52.6566 130.665 52.4671 130.599 52.2503C130.533 52.0335 130.536 51.8006 130.606 51.5854L133.846 41.6379L125.449 35.6689C125.268 35.5397 125.13 35.3537 125.058 35.1379C124.985 34.9221 124.981 34.6879 125.046 34.4695C125.111 34.2511 125.241 34.06 125.419 33.924C125.596 33.7881 125.81 33.7144 126.031 33.7138H136.389L139.515 23.7409C139.583 23.5256 139.714 23.3379 139.891 23.2048C140.067 23.0717 140.28 23 140.498 23C140.717 23 140.929 23.0717 141.106 23.2048C141.283 23.3379 141.414 23.5256 141.481 23.7409L144.607 33.7171H154.966C155.187 33.717 155.402 33.7902 155.579 33.9259C155.757 34.0616 155.888 34.2527 155.954 34.4713C156.019 34.6898 156.015 34.9243 155.943 35.1404C155.87 35.3566 155.733 35.5429 155.551 35.6722L147.151 41.6379L150.389 51.5827C150.441 51.7437 150.456 51.9153 150.432 52.0834C150.408 52.2515 150.345 52.4112 150.25 52.5494C150.154 52.6875 150.028 52.8002 149.883 52.8779C149.737 52.9557 149.575 52.9965 149.412 52.9968Z" fill="white"/>
<path d="M87.199 28.9969C86.9745 28.9977 86.7554 28.9298 86.5729 28.8027L77.9983 22.7679L69.4237 28.8027C69.2405 28.9317 69.0198 29.0008 68.7935 29C68.5672 28.9992 68.3471 28.9285 68.1648 28.7983C67.9826 28.668 67.8478 28.4848 67.7799 28.2753C67.7119 28.0657 67.7144 27.8406 67.7869 27.6325L71.1312 18.0166L62.4639 12.2466C62.2762 12.1217 62.1345 11.9419 62.0595 11.7333C61.9846 11.5247 61.9803 11.2983 62.0473 11.0872C62.1144 10.8761 62.2492 10.6913 62.4321 10.5599C62.615 10.4285 62.8364 10.3572 63.0639 10.3567H73.7567L76.9836 0.716177C77.0531 0.508042 77.1887 0.32663 77.371 0.197967C77.5534 0.0693031 77.7729 0 77.9983 0C78.2237 0 78.4433 0.0693031 78.6256 0.197967C78.8079 0.32663 78.9436 0.508042 79.0131 0.716177L82.24 10.3599H92.9327C93.1606 10.3598 93.3825 10.4305 93.5659 10.5617C93.7494 10.6929 93.8847 10.8776 93.9522 11.0889C94.0196 11.3002 94.0156 11.5269 93.9408 11.7358C93.8659 11.9447 93.7241 12.1248 93.5361 12.2498L84.8655 18.0166L88.2077 27.6299C88.2619 27.7856 88.2771 27.9515 88.2522 28.114C88.2272 28.2765 88.1628 28.4309 88.0643 28.5644C87.9657 28.6979 87.8358 28.8068 87.6854 28.882C87.5349 28.9572 87.3682 28.9966 87.199 28.9969Z" fill="white"/>
<path d="M118.412 36.9969C118.194 36.9977 117.982 36.9298 117.805 36.8027L109.498 30.7679L101.192 36.8027C101.014 36.9317 100.8 37.0008 100.581 37C100.362 36.9992 100.149 36.9285 99.9722 36.7983C99.7957 36.668 99.665 36.4848 99.5992 36.2753C99.5334 36.0657 99.5358 35.8406 99.6061 35.6325L102.846 26.0166L94.4494 20.2466C94.2675 20.1217 94.1303 19.9419 94.0577 19.7333C93.9851 19.5247 93.9809 19.2983 94.0458 19.0872C94.1108 18.8761 94.2414 18.6913 94.4186 18.5599C94.5958 18.4285 94.8102 18.3572 95.0307 18.3567H105.389L108.515 8.71618C108.583 8.50804 108.714 8.32663 108.891 8.19797C109.067 8.0693 109.28 8 109.498 8C109.717 8 109.929 8.0693 110.106 8.19797C110.283 8.32663 110.414 8.50804 110.481 8.71618L113.607 18.3599H123.966C124.187 18.3598 124.402 18.4305 124.579 18.5617C124.757 18.6929 124.888 18.8776 124.954 19.0889C125.019 19.3002 125.015 19.5269 124.943 19.7358C124.87 19.9447 124.733 20.1248 124.551 20.2498L116.151 26.0166L119.389 35.6299C119.441 35.7856 119.456 35.9515 119.432 36.114C119.408 36.2765 119.345 36.4309 119.25 36.5644C119.154 36.6979 119.028 36.8068 118.883 36.882C118.737 36.9572 118.575 36.9966 118.412 36.9969Z" fill="white"/>
<path d="M55.4115 36.9969C55.194 36.9977 54.9818 36.9298 54.805 36.8027L46.4984 30.7679L38.1917 36.8027C38.0143 36.9317 37.8005 37.0008 37.5812 37C37.362 36.9992 37.1487 36.9285 36.9722 36.7983C36.7957 36.668 36.665 36.4848 36.5992 36.2753C36.5334 36.0657 36.5358 35.8406 36.6061 35.6325L39.8458 26.0166L31.4494 20.2466C31.2675 20.1217 31.1303 19.9419 31.0577 19.7333C30.9851 19.5247 30.9809 19.2983 31.0458 19.0872C31.1108 18.8761 31.2414 18.6913 31.4186 18.5599C31.5958 18.4285 31.8102 18.3572 32.0307 18.3567H42.3893L45.5154 8.71618C45.5827 8.50804 45.7141 8.32663 45.8907 8.19797C46.0673 8.0693 46.28 8 46.4984 8C46.7167 8 46.9295 8.0693 47.1061 8.19797C47.2827 8.32663 47.4141 8.50804 47.4814 8.71618L50.6075 18.3599H60.9661C61.1868 18.3598 61.4018 18.4305 61.5795 18.5617C61.7572 18.6929 61.8883 18.8776 61.9537 19.0889C62.019 19.3002 62.0151 19.5269 61.9426 19.7358C61.8701 19.9447 61.7327 20.1248 61.5506 20.2498L53.1509 26.0166L56.3887 35.6299C56.4412 35.7856 56.456 35.9515 56.4318 36.114C56.4076 36.2765 56.3452 36.4309 56.2498 36.5644C56.1543 36.6979 56.0285 36.8068 55.8827 36.882C55.737 36.9572 55.5755 36.9966 55.4115 36.9969Z" fill="white"/>
<path d="M24.4115 52.9968C24.194 52.9977 23.9818 52.9274 23.805 52.7959L15.4984 46.553L7.19173 52.7959C7.01427 52.9293 6.80046 53.0008 6.58123 53C6.36201 52.9992 6.14871 52.9261 5.97218 52.7913C5.79566 52.6566 5.66505 52.4671 5.59924 52.2503C5.53343 52.0335 5.53583 51.8006 5.6061 51.5854L8.84583 41.6379L0.4494 35.6689C0.267528 35.5397 0.130261 35.3537 0.0576556 35.1379C-0.0149496 34.9221 -0.0190882 34.6879 0.0458446 34.4695C0.110777 34.2511 0.241379 34.06 0.418566 33.924C0.595754 33.7881 0.810242 33.7144 1.03069 33.7138H11.3893L14.5154 23.7409C14.5827 23.5256 14.7141 23.3379 14.8907 23.2048C15.0673 23.0717 15.28 23 15.4984 23C15.7167 23 15.9295 23.0717 16.1061 23.2048C16.2827 23.3379 16.4141 23.5256 16.4814 23.7409L19.6075 33.7171H29.9661C30.1868 33.717 30.4018 33.7902 30.5795 33.9259C30.7572 34.0616 30.8883 34.2527 30.9537 34.4713C31.019 34.6898 31.0151 34.9243 30.9426 35.1404C30.8701 35.3566 30.7327 35.5429 30.5506 35.6722L22.1509 41.6379L25.3887 51.5827C25.4412 51.7437 25.456 51.9153 25.4318 52.0834C25.4076 52.2515 25.3452 52.4112 25.2498 52.5494C25.1543 52.6875 25.0285 52.8002 24.8827 52.8779C24.737 52.9557 24.5755 52.9965 24.4115 52.9968Z" fill="white"/>
</svg>
